<svg version="1.1" xmlns="http://www.w3.org/2000/svg" style="display: block;" viewBox="0 0 2048 2048" width="999" height="999">
<path transform="translate(0,0)" fill="rgb(146,30,34)" d="M 1010.29 542.455 C 1060.13 541.491 1109.57 551.452 1155.15 571.636 C 1238.06 608.455 1302.81 676.878 1335.01 761.685 C 1365.87 842.485 1364.69 938.192 1329.25 1017.42 L 1296.54 1001.27 C 1297.2 999.878 1297.83 998.468 1298.42 997.043 C 1328.85 922.126 1328.24 838.183 1296.72 763.716 C 1264.95 688.931 1204.63 629.931 1129.16 599.822 C 1055.81 569.843 971.08 571.957 898.36 602.556 C 825.357 633.65 767.432 692.095 736.993 765.374 C 730.704 780.584 725.906 795.704 721.855 811.654 C 701.353 892.36 718.532 974.725 760.57 1045.26 C 785.99 997.188 814.356 950.441 840.786 902.893 C 853.047 909.178 864.951 916.128 877.158 922.518 C 864.394 947.685 849.905 972.246 836.241 996.946 L 745.642 1160.09 C 729.822 1160.24 713.304 1157.51 697.542 1155.87 L 748.483 1066.17 L 738.442 1076.63 C 700.94 1023.45 679.725 960.502 677.385 895.472 C 673.976 805.029 706.65 716.938 768.213 650.594 C 831.696 581.164 917.251 546.627 1010.29 542.455 z"/>
<path transform="translate(0,0)" fill="rgb(146,30,34)" d="M 1171.95 851.101 C 1172.79 851.03 1173.83 851.3 1174.66 851.421 C 1182.46 859.554 1187.93 872.772 1193.35 882.699 C 1178.27 888.475 1164.07 896.484 1150.61 905.366 C 1094 942.723 1052.8 995.522 1039.01 1062.63 C 1026.01 1063.26 1012.72 1062.64 999.692 1062.57 C 992.303 1028.64 974.769 996.223 953.045 969.355 C 931.571 937.466 883.832 903.396 848.915 887.19 C 854.868 876.8 858.856 865.519 865.758 855.631 C 883.552 858.653 901.385 862.063 919.304 864.234 C 995.899 873.516 1097.88 874.479 1171.95 851.101 z"/>
<path transform="translate(0,0)" fill="rgb(254,254,254)" d="M 1087.49 899.142 L 1088.46 899.366 C 1091.93 903.42 1094.16 908.535 1096.63 913.242 C 1092.3 915.219 1088.06 917.286 1083.95 919.689 C 1055.09 936.555 1037.01 960.029 1028.54 992.268 L 1011.66 992.357 C 1008.19 976.283 999.763 962.939 990.042 949.948 C 976.999 935.153 963.016 924.273 945.382 915.358 L 952.123 901.008 C 996.043 910.448 1044.03 910.718 1087.49 899.142 z"/>
<path transform="translate(0,0)" fill="rgb(146,30,34)" d="M 1206.59 903.978 C 1206.7 903.99 1206.81 903.984 1206.92 904.014 C 1206.92 904.016 1209.15 904.756 1209.18 904.777 C 1212.36 907.221 1340.16 1135.06 1351.94 1155.75 C 1335.89 1157.19 1319.68 1160.07 1303.57 1160.12 C 1294.61 1141.74 1284.03 1122.83 1273.08 1105.55 C 1240.46 1146.71 1187.13 1181.04 1138.43 1199.72 C 1059.26 1230.11 963.148 1230.04 885.239 1195.33 C 856.485 1183.46 831.306 1167.52 806.46 1148.97 C 811.611 1141.18 817.786 1133.34 823.876 1126.27 C 824.644 1125.38 827.588 1122 828.63 1121.91 C 828.762 1121.9 875.001 1150.9 885.812 1156.42 C 931.222 1179.59 988.482 1189.1 1039.02 1185.19 C 1126.13 1178.46 1198.64 1137.18 1254.77 1071.43 C 1227.14 1021.92 1200.84 971.187 1171.63 922.636 C 1183.29 916.326 1194.53 909.542 1206.59 903.978 z"/>
<path transform="translate(0,0)" fill="rgb(146,30,34)" d="M 444.331 1296.35 C 456.501 1294.45 471.134 1295.54 483.033 1298.92 C 503.115 1304.84 520.027 1318.49 530.057 1336.86 C 544.846 1363.57 546.195 1399.96 537.687 1428.86 C 532.025 1448.1 520.251 1467.5 502.242 1477.38 C 516.873 1489.86 533.021 1500.68 547.873 1512.96 C 540.152 1513.07 532.43 1512.98 524.714 1512.68 C 521.581 1510.37 518.512 1507.95 515.419 1505.59 C 506.948 1498.56 498.534 1491.45 489.811 1484.73 C 483.489 1486.71 476.901 1488.4 470.344 1489.37 C 447.016 1492.81 421.709 1489.62 402.42 1475.28 C 383.163 1460.96 371.315 1438.65 368.04 1415.07 C 363.933 1385.5 368.225 1351.64 386.915 1327.46 C 401.681 1308.35 420.783 1299.52 444.331 1296.35 z M 467.234 1476.74 C 485.077 1474.45 500.001 1465.81 511.013 1451.56 C 527.197 1430.63 530.643 1400.48 527.116 1374.94 C 524.261 1354.27 515.748 1334.56 498.758 1321.69 C 482.484 1309.37 463.599 1307.47 443.86 1309.27 C 422.789 1313.77 407.501 1322.51 395.458 1340.8 C 381.065 1362.66 377.892 1392.55 383.169 1417.83 C 387.247 1437.36 397.92 1456.25 414.902 1467.25 C 430.515 1477.36 449.106 1479.43 467.234 1476.74 z"/>
<path transform="translate(0,0)" fill="rgb(146,30,34)" d="M 998.014 616.154 C 1013.44 616.022 1028.87 616.009 1044.29 616.115 C 1060.38 640.587 1073.93 668.025 1088.42 693.544 C 1114.46 739.395 1141.09 785.028 1166.47 831.233 C 1150.77 833.471 1134.62 835.277 1118.77 835.829 C 1107.28 817.457 1097.35 797.686 1086.85 778.707 L 1030.55 677.504 C 1027.72 671.465 1024.26 665.878 1020.78 660.201 C 1010.72 680.032 999.37 699.347 988.602 718.808 L 923.43 836.189 C 907.387 835.35 891.268 832.816 875.224 831.558 C 884.834 816.719 893.053 800.484 901.784 785.093 L 962.704 677.526 C 974.279 657.055 985.188 635.851 998.014 616.154 z"/>
<path transform="translate(0,0)" fill="rgb(146,30,34)" d="M 1543.45 1360.42 L 1555.77 1362.22 C 1554.42 1369.92 1552.55 1377.42 1550.59 1384.98 L 1620.24 1384.82 C 1631.93 1384.8 1644.57 1383.82 1656.11 1385.34 C 1657.56 1388.75 1657.06 1393.09 1657.06 1396.75 C 1620.64 1396.32 1583.79 1398.08 1547.44 1396.25 C 1545.16 1404.36 1541.73 1412.21 1538.63 1420.04 L 1599.04 1419.83 C 1609.75 1419.8 1620.99 1419.05 1631.62 1420.12 C 1636.12 1420.58 1640.3 1421.17 1643.28 1424.78 C 1643.34 1425.82 1643.44 1426.39 1643.17 1427.49 C 1639.88 1440.91 1611.15 1462.85 1599.53 1469.95 C 1621.2 1479.95 1652.46 1487.17 1676.23 1488.46 L 1668.89 1500.62 C 1646.68 1497.52 1624.89 1491.94 1603.92 1483.97 C 1598.71 1481.98 1589.93 1476.67 1584.7 1478.28 C 1562.66 1489.04 1540.13 1494.68 1516.42 1500.42 L 1510.8 1489.13 C 1533.3 1484.9 1553.85 1478.77 1575.29 1470.82 C 1558.38 1461.01 1544.03 1450.01 1531.73 1434.74 C 1515.54 1464.18 1495.89 1484.58 1467.68 1502.63 C 1464.82 1499.32 1462.01 1495.97 1459.26 1492.56 C 1501.21 1466 1516.36 1442.49 1534.43 1397.04 C 1518.75 1395.87 1502.56 1396.44 1486.84 1396.93 L 1486.54 1384.86 L 1537.66 1384.9 C 1539.47 1376.72 1541.4 1368.55 1543.45 1360.42 z M 1587.91 1464.12 C 1595.39 1459.54 1603.76 1454.7 1610.04 1448.55 C 1616.33 1443.59 1621.53 1437.82 1626.9 1431.9 C 1599.06 1431.91 1570.97 1432.7 1543.16 1431.67 C 1554.84 1444.89 1571.41 1457.64 1587.91 1464.12 z"/>
<path transform="translate(0,0)" fill="rgb(146,30,34)" d="M 693.847 1299.22 C 697.75 1298.98 701.187 1298.72 705.018 1299.62 C 710.471 1303.42 768.607 1465.76 776.459 1487.04 L 760.991 1487.07 C 751.988 1469.48 746.073 1447.75 739.597 1429.04 L 704.5 1429.01 L 659.161 1428.95 C 653.2 1448.48 645.724 1468.29 637.846 1487.12 L 622.652 1487.11 C 637.876 1444.9 654.198 1403.04 669.988 1361.05 C 676.061 1344.89 686.079 1312.96 693.847 1299.22 z M 663.751 1416.92 L 700.5 1416.89 L 734.972 1416.85 C 731.674 1407.86 699.683 1318.09 699.286 1317.68 C 689.12 1350.98 676.618 1384.56 663.751 1416.92 z"/>
<path transform="translate(0,0)" fill="rgb(146,30,34)" d="M 1050.16 1299.27 C 1053.02 1299.07 1057.79 1298.32 1060.51 1299.38 C 1063.06 1300.38 1063.64 1301.46 1064.79 1303.85 C 1073.1 1321.25 1080.13 1344.86 1087.01 1363.4 L 1132.93 1486.92 L 1117.36 1487.15 C 1109.33 1468.46 1102.12 1448.41 1096.16 1428.96 L 1063.25 1429.01 L 1015.92 1428.93 C 1008.78 1448.34 1002.26 1468.11 994.344 1487.21 L 979.142 1487.02 C 993.208 1446.77 1009.27 1407.01 1024.24 1367.07 C 1031.62 1347.37 1040.84 1316.84 1050.16 1299.27 z M 1020.08 1416.89 L 1056.5 1416.89 L 1091.29 1416.85 C 1084.07 1397.51 1077.03 1378.09 1070.17 1358.62 C 1065.67 1346.03 1060.66 1333.42 1057.11 1320.54 C 1056.62 1318.77 1056.84 1319.47 1055.87 1317.47 C 1044.76 1350.77 1033.24 1384.33 1020.08 1416.89 z"/>
<path transform="translate(0,0)" fill="rgb(146,30,34)" d="M 934.666 1299.11 L 948.558 1298.94 C 947.672 1330.12 948.236 1361.44 948.231 1392.64 C 948.227 1424.13 947.638 1455.76 948.64 1487.23 C 946.07 1487.27 942.979 1487.48 940.463 1486.97 C 937.972 1486.46 936.797 1484.68 935.268 1482.83 C 927.793 1473.78 921.11 1463.77 914.172 1454.29 L 875.423 1401.49 C 857.939 1377.68 834.337 1348.85 819.841 1324.26 L 820.076 1487.15 L 806.209 1487.16 L 806.026 1299 C 808.686 1298.98 811.882 1298.83 814.484 1299.39 C 817.313 1300 819.082 1302.31 820.855 1304.43 C 836.798 1323.43 850.832 1344.98 865.555 1364.99 C 889.071 1396.94 913.374 1428.49 935.735 1461.26 C 933.559 1442.4 934.762 1422.36 934.771 1403.39 L 934.666 1299.11 z"/>
<path transform="translate(0,0)" fill="rgb(146,30,34)" d="M 1397.47 1286.01 C 1397.62 1286 1397.76 1285.95 1397.91 1285.97 C 1402.29 1286.53 1406.71 1292.4 1409.92 1295.43 C 1388.98 1304.03 1353.72 1310 1331 1313.01 C 1331.25 1335 1331.04 1357.03 1331.06 1379.02 L 1435.59 1378.89 C 1435.81 1383.14 1435.71 1387.44 1435.75 1391.7 C 1422.38 1390.7 1408.72 1391.18 1395.32 1391.18 L 1330.98 1391.24 C 1331.65 1429.77 1331.03 1468.44 1331.15 1506.99 L 1318.07 1506.99 L 1318.01 1421.5 L 1318.09 1391.17 L 1255.65 1391.14 C 1241.95 1391.14 1228.03 1390.61 1214.38 1391.89 C 1214.14 1387.61 1214.38 1383.24 1214.45 1378.95 L 1318.25 1378.92 C 1317.92 1357.5 1317.88 1336.07 1318.12 1314.65 C 1289.32 1318.99 1260.39 1323.45 1231.28 1325.08 L 1228.17 1314.44 C 1242.05 1311.84 1256.64 1311.15 1270.67 1309.39 C 1312.68 1304.13 1357.01 1298.63 1397.47 1286.01 z"/>
<path transform="translate(0,0)" fill="rgb(146,30,34)" d="M 1630.86 1303.43 C 1635.1 1303.88 1639.42 1305.8 1643.44 1307.18 C 1637.92 1319.09 1629.85 1330.29 1622.63 1341.23 C 1639.68 1341 1656.72 1340.89 1673.77 1340.88 L 1673.74 1380.38 L 1661.8 1380.74 L 1661.92 1352.3 L 1482.86 1352.34 C 1482.94 1360.73 1484.39 1371.45 1482.42 1379.53 L 1480.24 1380.24 C 1477.26 1380.48 1474.77 1380.64 1471.8 1380 C 1469.28 1373.98 1470.87 1348.77 1470.87 1341.01 L 1514.96 1341.08 L 1503.57 1312.39 L 1514.57 1309.19 C 1518.95 1319.42 1524.28 1329.95 1526.45 1340.9 C 1540.97 1341.1 1555.51 1341.02 1570.04 1341.05 C 1566.9 1330.6 1563.59 1320.2 1560.1 1309.86 C 1563.54 1308.9 1566.42 1307.86 1570 1308.5 C 1576.07 1313.1 1579.48 1333.84 1581.3 1341.03 L 1610.18 1341.01 C 1617.6 1328.71 1624.9 1316.51 1630.86 1303.43 z"/>
<path transform="translate(0,0)" fill="rgb(146,30,34)" d="M 1164.23 1299.04 L 1178.63 1298.98 C 1177.58 1332.05 1178.23 1365.29 1178.23 1398.37 C 1178.23 1427.86 1177.44 1457.6 1178.68 1487.05 L 1164.36 1487.23 L 1164.23 1299.04 z"/>
<path transform="translate(0,0)" fill="rgb(146,30,34)" d="M 577.96 1299.05 L 592 1298.97 C 591.341 1361.64 591.754 1424.41 591.956 1487.09 L 578.002 1487.26 L 577.96 1299.05 z"/>
<path transform="translate(0,0)" fill="rgb(146,30,34)" d="M 1651.31 1284.38 C 1652.76 1284.33 1653.2 1283.99 1654.4 1285.02 C 1656.5 1286.8 1657.76 1289.37 1657.91 1292.12 C 1657.96 1293.28 1658.07 1293.43 1657.25 1294.09 C 1647.35 1302.02 1506.72 1307.39 1482.75 1307.81 L 1480.3 1307.55 C 1477.43 1304.86 1476.67 1300.84 1475.52 1297.19 C 1533.96 1296.49 1593.49 1292.85 1651.31 1284.38 z"/>
</svg>
